{
	"accessors" : 
	[
		{
			"bufferView" : 2,
			"byteOffset" : 0,
			"componentType" : 5126,
			"count" : 480,
			"max" : 
			[
				1,
				1,
				1,
				1
			],
			"min" : 
			[
				1,
				1,
				1,
				1
			],
			"name" : "accessor_color_m0-PolyGem25_-1096702",
			"type" : "VEC4"
		},
		{
			"bufferView" : 2,
			"byteOffset" : 7680,
			"componentType" : 5126,
			"count" : 9922,
			"max" : 
			[
				0.9075471758842468,
				0.3488648533821106,
				0.7893137335777283,
				1
			],
			"min" : 
			[
				5.692175545846112e-05,
				0.006584956776350737,
				0.006584956776350737,
				1
			],
			"name" : "accessor_color_m1-PolyPaper16_-1096700",
			"type" : "VEC4"
		},
		{
			"bufferView" : 2,
			"byteOffset" : 166432,
			"componentType" : 5126,
			"count" : 58,
			"max" : 
			[
				0.6800203323364258,
				0.6800203323364258,
				0.6800203323364258,
				0.2509804
			],
			"min" : 
			[
				0.6800203323364258,
				0.6800203323364258,
				0.6800203323364258,
				0.2509804
			],
			"name" : "accessor_color_m2-PolyGlass24_-1096704",
			"type" : "VEC4"
		},
		{
			"bufferView" : 2,
			"byteOffset" : 167360,
			"componentType" : 5126,
			"count" : 390,
			"max" : 
			[
				0.05637409910559654,
				0.1011451631784439,
				0.1275297701358795,
				1
			],
			"min" : 
			[
				0.05637409910559654,
				0.1011451631784439,
				0.1275297701358795,
				1
			],
			"name" : "accessor_color_m3-PolyPaper17_-1096706",
			"type" : "VEC4"
		},
		{
			"bufferView" : 0,
			"byteOffset" : 0,
			"componentType" : 5123,
			"count" : 708,
			"max" : 
			[
				479
			],
			"min" : 
			[
				0
			],
			"name" : "accessor_indices_0_m0-PolyGem25_-1096702",
			"type" : "SCALAR"
		},
		{
			"bufferView" : 0,
			"byteOffset" : 1416,
			"componentType" : 5123,
			"count" : 15312,
			"max" : 
			[
				9921
			],
			"min" : 
			[
				0
			],
			"name" : "accessor_indices_0_m1-PolyPaper16_-1096700",
			"type" : "SCALAR"
		},
		{
			"bufferView" : 0,
			"byteOffset" : 32040,
			"componentType" : 5123,
			"count" : 60,
			"max" : 
			[
				57
			],
			"min" : 
			[
				0
			],
			"name" : "accessor_indices_0_m2-PolyGlass24_-1096704",
			"type" : "SCALAR"
		},
		{
			"bufferView" : 0,
			"byteOffset" : 32160,
			"componentType" : 5123,
			"count" : 588,
			"max" : 
			[
				389
			],
			"min" : 
			[
				0
			],
			"name" : "accessor_indices_0_m3-PolyPaper17_-1096706",
			"type" : "SCALAR"
		},
		{
			"bufferView" : 1,
			"byteOffset" : 5760,
			"componentType" : 5126,
			"count" : 480,
			"max" : 
			[
				0.9659259,
				1,
				0.9837439
			],
			"min" : 
			[
				-0.9659257999999999,
				-1,
				-0.9837437999999999
			],
			"name" : "accessor_normal_m0-PolyGem25_-1096702",
			"type" : "VEC3"
		},
		{
			"bufferView" : 1,
			"byteOffset" : 130584,
			"componentType" : 5126,
			"count" : 9922,
			"max" : 
			[
				1,
				1,
				1
			],
			"min" : 
			[
				-1,
				-1,
				-1
			],
			"name" : "accessor_normal_m1-PolyPaper16_-1096700",
			"type" : "VEC3"
		},
		{
			"bufferView" : 1,
			"byteOffset" : 250344,
			"componentType" : 5126,
			"count" : 58,
			"max" : 
			[
				0.9821442,
				1,
				0.8961992
			],
			"min" : 
			[
				-0.8187217,
				-0.9984221,
				-0.8741571
			],
			"name" : "accessor_normal_m2-PolyGlass24_-1096704",
			"type" : "VEC3"
		},
		{
			"bufferView" : 1,
			"byteOffset" : 255720,
			"componentType" : 5126,
			"count" : 390,
			"max" : 
			[
				1,
				1,
				1
			],
			"min" : 
			[
				-1,
				-1,
				-1
			],
			"name" : "accessor_normal_m3-PolyPaper17_-1096706",
			"type" : "VEC3"
		},
		{
			"bufferView" : 1,
			"byteOffset" : 0,
			"componentType" : 5126,
			"count" : 480,
			"max" : 
			[
				-0.2049697,
				-2.660697,
				0.944964
			],
			"min" : 
			[
				-0.2950078,
				-2.799989,
				0.8542783
			],
			"name" : "accessor_position_m0-PolyGem25_-1096702",
			"type" : "VEC3"
		},
		{
			"bufferView" : 1,
			"byteOffset" : 11520,
			"componentType" : 5126,
			"count" : 9922,
			"max" : 
			[
				0.9504911,
				-2.674976,
				1.729987
			],
			"min" : 
			[
				-0.8530031,
				-3.08058,
				0.06849834
			],
			"name" : "accessor_position_m1-PolyPaper16_-1096700",
			"type" : "VEC3"
		},
		{
			"bufferView" : 1,
			"byteOffset" : 249648,
			"componentType" : 5126,
			"count" : 58,
			"max" : 
			[
				0.1350006,
				-2.680009,
				0.9850187
			],
			"min" : 
			[
				-0.1597522,
				-2.770009,
				0.8050186
			],
			"name" : "accessor_position_m2-PolyGlass24_-1096704",
			"type" : "VEC3"
		},
		{
			"bufferView" : 1,
			"byteOffset" : 251040,
			"componentType" : 5126,
			"count" : 390,
			"max" : 
			[
				-0.3599864,
				-2.88943,
				0.7044318000000001
			],
			"min" : 
			[
				-0.5588102,
				-3.07943,
				0.6456078
			],
			"name" : "accessor_position_m3-PolyPaper17_-1096706",
			"type" : "VEC3"
		}
	],
	"asset" : 
	{
		"copyright" : "Unknown",
		"generator" : "glTF 1-to-2 Upgrader for Google Blocks",
		"version" : "2.0"
	},
	"bufferViews" : 
	[
		{
			"buffer" : 0,
			"byteLength" : 33336,
			"byteOffset" : 0,
			"name" : "ushortBufferView",
			"target" : 34963
		},
		{
			"buffer" : 0,
			"byteLength" : 260400,
			"byteOffset" : 33336,
			"byteStride" : 12,
			"name" : "vec3BufferView",
			"target" : 34962
		},
		{
			"buffer" : 0,
			"byteLength" : 173600,
			"byteOffset" : 293736,
			"byteStride" : 16,
			"name" : "vec4BufferView",
			"target" : 34962
		}
	],
	"buffers" : 
	[
		{
			"byteLength" : 467336,
			"name" : "model",
			"uri" : "model.bin"
		}
	],
	"materials" : 
	[
		{
			"alphaMode" : "OPAQUE",
			"doubleSided" : false,
			"name" : "BlocksPaper",
			"pbrMetallicRoughness" : 
			{
				"baseColorFactor" : 
				[
					1,
					1,
					1,
					1
				],
				"metallicFactor" : 0,
				"roughnessFactor" : 0.6
			}
		},
		{
			"alphaMode" : "BLEND",
			"doubleSided" : false,
			"name" : "BlocksGlass",
			"pbrMetallicRoughness" : 
			{
				"baseColorFactor" : 
				[
					0.2,
					0.2,
					1,
					0.3
				],
				"metallicFactor" : 1,
				"roughnessFactor" : 0.4
			}
		},
		{
			"alphaMode" : "OPAQUE",
			"doubleSided" : true,
			"name" : "BlocksGem",
			"pbrMetallicRoughness" : 
			{
				"baseColorFactor" : 
				[
					1,
					0.4,
					1,
					1
				],
				"metallicFactor" : 0,
				"roughnessFactor" : 0.1
			}
		}
	],
	"meshes" : 
	[
		{
			"name" : "mesh_m0-PolyGem25_-1096702",
			"primitives" : 
			[
				{
					"attributes" : 
					{
						"COLOR_0" : 0,
						"NORMAL" : 8,
						"POSITION" : 12
					},
					"indices" : 4,
					"material" : 2,
					"mode" : 4
				}
			]
		},
		{
			"name" : "mesh_m1-PolyPaper16_-1096700",
			"primitives" : 
			[
				{
					"attributes" : 
					{
						"COLOR_0" : 1,
						"NORMAL" : 9,
						"POSITION" : 13
					},
					"indices" : 5,
					"material" : 0,
					"mode" : 4
				}
			]
		},
		{
			"name" : "mesh_m2-PolyGlass24_-1096704",
			"primitives" : 
			[
				{
					"attributes" : 
					{
						"COLOR_0" : 2,
						"NORMAL" : 10,
						"POSITION" : 14
					},
					"indices" : 6,
					"material" : 1,
					"mode" : 4
				}
			]
		},
		{
			"name" : "mesh_m3-PolyPaper17_-1096706",
			"primitives" : 
			[
				{
					"attributes" : 
					{
						"COLOR_0" : 3,
						"NORMAL" : 11,
						"POSITION" : 15
					},
					"indices" : 7,
					"material" : 0,
					"mode" : 4
				}
			]
		}
	],
	"nodes" : 
	[
		{
			"matrix" : 
			[
				1,
				0,
				0,
				0,
				0,
				1,
				0,
				0,
				0,
				0,
				1,
				0,
				0,
				0,
				0,
				1
			],
			"mesh" : 2,
			"name" : "node_MeshObject-1876568320-PolyGlass24"
		},
		{
			"matrix" : 
			[
				1,
				0,
				0,
				0,
				0,
				1,
				0,
				0,
				0,
				0,
				1,
				0,
				0,
				0,
				0,
				1
			],
			"mesh" : 3,
			"name" : "node_MeshObject-839128192-PolyPaper17"
		},
		{
			"matrix" : 
			[
				1,
				0,
				0,
				0,
				0,
				1,
				0,
				0,
				0,
				0,
				1,
				0,
				0,
				0,
				0,
				1
			],
			"mesh" : 0,
			"name" : "node_MeshObject1380958848-PolyGem25"
		},
		{
			"matrix" : 
			[
				1,
				0,
				0,
				0,
				0,
				1,
				0,
				0,
				0,
				0,
				1,
				0,
				0,
				0,
				0,
				1
			],
			"mesh" : 1,
			"name" : "node_MeshObject343518720-PolyPaper16"
		}
	],
	"scene" : 0,
	"scenes" : 
	[
		{
			"extras" : {},
			"name" : "defaultScene",
			"nodes" : 
			[
				2,
				3,
				0,
				1
			]
		}
	]
}