{
	"accessors" : 
	[
		{
			"bufferView" : 2,
			"byteOffset" : 0,
			"componentType" : 5126,
			"count" : 11300,
			"max" : 
			[
				1,
				1,
				1,
				1
			],
			"min" : 
			[
				0.006584956776350737,
				0.006584956776350737,
				0.006584956776350737,
				1
			],
			"name" : "accessor_color_m0-PolyPaper21_-579912",
			"type" : "VEC4"
		},
		{
			"bufferView" : 2,
			"byteOffset" : 180800,
			"componentType" : 5126,
			"count" : 724,
			"max" : 
			[
				1,
				1,
				1,
				1
			],
			"min" : 
			[
				0.1904628723859787,
				0.2844520807266235,
				0.3392233550548553,
				1
			],
			"name" : "accessor_color_m1-PolyPaper17_-579918",
			"type" : "VEC4"
		},
		{
			"bufferView" : 0,
			"byteOffset" : 0,
			"componentType" : 5123,
			"count" : 16788,
			"max" : 
			[
				11299
			],
			"min" : 
			[
				0
			],
			"name" : "accessor_indices_0_m0-PolyPaper21_-579912",
			"type" : "SCALAR"
		},
		{
			"bufferView" : 0,
			"byteOffset" : 33576,
			"componentType" : 5123,
			"count" : 1038,
			"max" : 
			[
				723
			],
			"min" : 
			[
				0
			],
			"name" : "accessor_indices_0_m1-PolyPaper17_-579918",
			"type" : "SCALAR"
		},
		{
			"bufferView" : 1,
			"byteOffset" : 135600,
			"componentType" : 5126,
			"count" : 11300,
			"max" : 
			[
				0.999945,
				0.9996304,
				0.9997699
			],
			"min" : 
			[
				-0.9997988,
				-0.9996304,
				-0.9998798
			],
			"name" : "accessor_normal_m0-PolyPaper21_-579912",
			"type" : "VEC3"
		},
		{
			"bufferView" : 1,
			"byteOffset" : 279888,
			"componentType" : 5126,
			"count" : 724,
			"max" : 
			[
				0.9949673999999999,
				0.9980217,
				0.9979281
			],
			"min" : 
			[
				-0.9979541,
				-0.9980218,
				-0.99793
			],
			"name" : "accessor_normal_m1-PolyPaper17_-579918",
			"type" : "VEC3"
		},
		{
			"bufferView" : 1,
			"byteOffset" : 0,
			"componentType" : 5126,
			"count" : 11300,
			"max" : 
			[
				-0.8106394,
				2.55042,
				1.967955
			],
			"min" : 
			[
				-2.882887,
				0.7332879,
				0.09015531
			],
			"name" : "accessor_position_m0-PolyPaper21_-579912",
			"type" : "VEC3"
		},
		{
			"bufferView" : 1,
			"byteOffset" : 271200,
			"componentType" : 5126,
			"count" : 724,
			"max" : 
			[
				-1.769352,
				1.830895,
				1.846459
			],
			"min" : 
			[
				-2.014485,
				1.481275,
				1.311573
			],
			"name" : "accessor_position_m1-PolyPaper17_-579918",
			"type" : "VEC3"
		}
	],
	"asset" : 
	{
		"copyright" : "Unknown",
		"generator" : "glTF 1-to-2 Upgrader for Google Blocks",
		"version" : "2.0"
	},
	"bufferViews" : 
	[
		{
			"buffer" : 0,
			"byteLength" : 35652,
			"byteOffset" : 0,
			"name" : "ushortBufferView",
			"target" : 34963
		},
		{
			"buffer" : 0,
			"byteLength" : 288576,
			"byteOffset" : 35652,
			"byteStride" : 12,
			"name" : "vec3BufferView",
			"target" : 34962
		},
		{
			"buffer" : 0,
			"byteLength" : 192384,
			"byteOffset" : 324228,
			"byteStride" : 16,
			"name" : "vec4BufferView",
			"target" : 34962
		}
	],
	"buffers" : 
	[
		{
			"byteLength" : 516612,
			"name" : "model",
			"uri" : "model.bin"
		}
	],
	"materials" : 
	[
		{
			"alphaMode" : "OPAQUE",
			"doubleSided" : false,
			"name" : "BlocksPaper",
			"pbrMetallicRoughness" : 
			{
				"baseColorFactor" : 
				[
					1,
					1,
					1,
					1
				],
				"metallicFactor" : 0,
				"roughnessFactor" : 0.6
			}
		},
		{
			"alphaMode" : "BLEND",
			"doubleSided" : false,
			"name" : "BlocksGlass",
			"pbrMetallicRoughness" : 
			{
				"baseColorFactor" : 
				[
					0.2,
					0.2,
					1,
					0.3
				],
				"metallicFactor" : 1,
				"roughnessFactor" : 0.4
			}
		},
		{
			"alphaMode" : "OPAQUE",
			"doubleSided" : true,
			"name" : "BlocksGem",
			"pbrMetallicRoughness" : 
			{
				"baseColorFactor" : 
				[
					1,
					0.4,
					1,
					1
				],
				"metallicFactor" : 0,
				"roughnessFactor" : 0.1
			}
		}
	],
	"meshes" : 
	[
		{
			"name" : "mesh_m0-PolyPaper21_-579912",
			"primitives" : 
			[
				{
					"attributes" : 
					{
						"COLOR_0" : 0,
						"NORMAL" : 4,
						"POSITION" : 6
					},
					"indices" : 2,
					"material" : 0,
					"mode" : 4
				}
			]
		},
		{
			"name" : "mesh_m1-PolyPaper17_-579918",
			"primitives" : 
			[
				{
					"attributes" : 
					{
						"COLOR_0" : 1,
						"NORMAL" : 5,
						"POSITION" : 7
					},
					"indices" : 3,
					"material" : 0,
					"mode" : 4
				}
			]
		}
	],
	"nodes" : 
	[
		{
			"matrix" : 
			[
				1,
				0,
				0,
				0,
				0,
				1,
				0,
				0,
				0,
				0,
				1,
				0,
				0,
				0,
				0,
				1
			],
			"mesh" : 0,
			"name" : "node_MeshObject1157605376-PolyPaper21"
		},
		{
			"matrix" : 
			[
				1,
				0,
				0,
				0,
				0,
				1,
				0,
				0,
				0,
				0,
				1,
				0,
				0,
				0,
				0,
				1
			],
			"mesh" : 1,
			"name" : "node_MeshObject1729684480-PolyPaper17"
		}
	],
	"scene" : 0,
	"scenes" : 
	[
		{
			"extras" : {},
			"name" : "defaultScene",
			"nodes" : 
			[
				0,
				1
			]
		}
	]
}